<svg width="150" height="50" viewBox="0 0 146 30" fill="none" xmlns="http://www.w3.org/2000/svg">
  <path d="M94.0964 5.60132C92.7292 14.38 82.3934 18.3304 69.0499 20.0861C43.183 23.4721 6.10541 18.5812 1.73047 24.4754C6.1601 17.5152 21.8552 16.1357 39.1362 15.5714H39.1909C62.4328 14.6935 88.6277 15.3205 94.0964 5.60132Z" fill="#3563E9"/>
  <path d="M145.173 14.1285C122.642 20.7125 103.064 0.83513 69.2681 4.09577C60.7916 4.91093 33.7217 15.6961 33.7217 15.6961C40.3388 11.056 63.6353 2.21463 69.1587 1.46218C74.0805 0.772425 93.1115 -2.55092 115.807 5.09905C117.775 5.7888 119.744 6.47855 121.767 7.35642C136.314 13.3134 145.173 14.1285 145.173 14.1285Z" fill="#3563E9"/>
  <path d="M145.174 14.1288C136.369 25.541 115.042 20.9636 97.0496 20.2111C91.4715 19.9603 86.1669 20.0857 81.6826 21.1517C97.8699 12.5612 115.424 15.1948 128.33 16.3234C135.987 16.9505 142.002 17.1386 145.174 14.1288Z" fill="#3563E9"/>
  <path d="M16.4959 24.1616C15.074 28.7391 9.98815 28.7391 5.88664 28.6137C3.37105 28.551 1.18358 28.4882 0.417969 29.3661C1.40233 24.9768 7.41787 23.8481 11.8475 23.7854C13.9803 23.7854 15.7849 23.9735 16.4959 24.1616Z" fill="#333333"/>
  <path d="M94.0969 5.60132C92.7298 14.38 82.394 18.3304 69.0504 20.0861C58.5505 20.6504 54.5584 15.1324 39.1914 15.5087C62.4333 14.6935 88.6282 15.3205 94.0969 5.60132Z" fill="#3563E9"/>
  <path d="M115.752 5.03646C101.424 2.46557 89.01 0.208199 69.2134 4.09589C60.7369 4.91105 33.667 15.6963 33.667 15.6963C40.3388 11.0561 63.6353 2.21475 69.1587 1.46229C74.0805 0.772541 93.1115 -2.55081 115.752 5.03646Z" fill="#3563E9"/>
  <path d="M128.385 16.2605C117.667 16.0096 114.495 20.5244 97.0496 20.1482C91.4715 19.8973 86.1669 20.0227 81.6826 21.0887C97.9246 12.4982 115.479 15.1318 128.385 16.2605Z" fill="#3563E9"/>
  <path d="M131.775 23.7848C141.017 22.468 144.955 18.016 144.955 18.016C146.103 23.3459 144.353 27.6098 131.775 23.7848Z" fill="#FF1C00"/>
</svg>
