<svg width="24" height="24" viewBox="0 0 24 24" fill="none" xmlns="http://www.w3.org/2000/svg">
<path d="M11.9975 4.63991C13.7165 4.61306 15.3791 5.25306 16.6365 6.42561L20.021 3.11548C17.849 1.08017 14.9738 -0.035931 11.9975 0.00088257C9.77355 0.000315013 7.5933 0.618398 5.70055 1.78601C3.80779 2.95363 2.27715 4.62475 1.27979 6.61249L5.15919 9.625C5.63372 8.18281 6.54893 6.92593 7.77578 6.03156C9.00264 5.13718 10.4793 4.65043 11.9975 4.63991Z" fill="#EA4335"/>
<path d="M23.5127 12.2638C23.5272 11.4393 23.4424 10.6161 23.2601 9.81189H11.9956V14.264H18.6072C18.4811 15.045 18.1982 15.7924 17.7756 16.4611C17.3531 17.1299 16.7995 17.7063 16.1484 18.1556L19.9396 21.0885C21.1189 19.949 22.0463 18.575 22.6617 17.0549C23.2772 15.5349 23.5671 13.9028 23.5127 12.2638Z" fill="#4285F4"/>
<path d="M5.17129 14.3713C4.90928 13.6077 4.77426 12.8063 4.77158 11.999C4.77623 11.193 4.90641 10.3927 5.15744 9.62673L1.27977 6.61249C0.438304 8.28308 0 10.1276 0 11.9982C0 13.8687 0.438304 15.7132 1.27977 17.3838L5.17129 14.3713Z" fill="#FBBC05"/>
<path d="M11.9958 23.9955C14.9178 24.0781 17.7605 23.0385 19.9398 21.0902L16.1556 18.1573C14.9297 18.9793 13.4781 19.3984 12.0028 19.3564C10.4846 19.3489 9.00749 18.8632 7.78116 17.9683C6.55482 17.0734 5.64166 15.8148 5.1714 14.3713L1.29199 17.3838C2.2864 19.371 3.81445 21.042 5.70495 22.2098C7.59546 23.3775 9.77376 23.9958 11.9958 23.9955Z" fill="#34A853"/>
</svg>
